<svg xmlns="http://www.w3.org/2000/svg" width="109" height="100" viewBox="0 0 109 100"><path fill="#ff8400" d="M38.55.94l67.02 38.81a6.86 6.86 0 0 1 2.5 9.35 6.82 6.82 0 0 1-9.32 2.51L82.3 42.09a6.87 6.87 0 0 1 2.39 9.29 6.83 6.83 0 0 1-9.05 2.66l16.28 9.43a6.87 6.87 0 0 1 2.5 9.36 6.82 6.82 0 0 1-9.33 2.51l-16.42-9.5a6.86 6.86 0 0 1 2.36 9.27 6.82 6.82 0 0 1-9.33 2.5L27.01 57.52a6.86 6.86 0 0 1-2.5-9.36 6.82 6.82 0 0 1 9.2-2.57l-15.64-9.06a6.87 6.87 0 0 1-2.5-9.36 6.81 6.81 0 0 1 9.33-2.51l22.7 13.15-6.93-4.02a6.86 6.86 0 0 1 6.7-11.93L31.73 12.8a6.86 6.86 0 0 1-2.5-9.36 6.81 6.81 0 0 1 9.32-2.5zm-27.3 47.45L78.25 87.2a6.86 6.86 0 0 1 2.5 9.36 6.81 6.81 0 0 1-9.33 2.5L4.41 60.25a6.86 6.86 0 0 1-2.5-9.35 6.82 6.82 0 0 1 9.33-2.51z"/></svg>