<svg xmlns="http://www.w3.org/2000/svg" width="68" height="64" viewBox="0 0 68 64"><defs><linearGradient id="a" x1="994" x2="927" y1="1244.13" y2="1189.87" gradientUnits="userSpaceOnUse"><stop offset="0" stop-color="#ff8400"/><stop offset="1" stop-color="#fb3d3c"/></linearGradient></defs><path d="M28.1 51.22a5.9 5.9 0 0 0 0 11.79 5.9 5.9 0 0 0 0-11.79zm0 8.5a2.6 2.6 0 1 1 0-5.21 2.6 2.6 0 0 1 0 5.21zm20.66-8.5a5.9 5.9 0 0 0 0 11.79 5.9 5.9 0 0 0 0-11.79zm0 8.5a2.6 2.6 0 1 1 .01-5.21 2.6 2.6 0 0 1 0 5.21zm1.46-39.53H26.64a1.65 1.65 0 0 0 0 3.29h23.58a1.65 1.65 0 0 0 0-3.29zm-1.29 8.54h-21a1.65 1.65 0 0 0 0 3.3h21a1.65 1.65 0 0 0 0-3.3zm17.33-15.88a3.27 3.27 0 0 0-2.55-1.21H12.47l-1.04-5.02a3.3 3.3 0 0 0-1.9-2.36L2.3 1.13C1.47.76.5 1.15.14 1.98c-.36.83.02 1.8.85 2.17l7.22 3.13 7.96 38.66a3.3 3.3 0 0 0 3.22 2.62h39.42a1.65 1.65 0 0 0 0-3.29H19.4l-.97-4.7H59.1a3.3 3.3 0 0 0 3.22-2.63l4.6-22.34c.2-.98-.04-1.98-.67-2.75zm-7.15 24.43H17.75l-4.6-22.35H63.7z"/><path fill="url(#a)" d="M955.1 1236.22a5.9 5.9 0 0 0 0 11.79 5.9 5.9 0 0 0 0-11.79zm0 8.5a2.6 2.6 0 1 1 0-5.21 2.6 2.6 0 0 1 0 5.21zm20.66-8.5a5.9 5.9 0 0 0 0 11.79 5.9 5.9 0 0 0 0-11.79zm0 8.5a2.6 2.6 0 1 1 .01-5.21 2.6 2.6 0 0 1 0 5.21zm1.46-39.53h-23.58a1.65 1.65 0 0 0 0 3.29h23.58a1.65 1.65 0 0 0 0-3.29zm-1.29 8.54h-21a1.65 1.65 0 0 0 0 3.3h21a1.65 1.65 0 0 0 0-3.3zm17.33-15.88a3.27 3.27 0 0 0-2.55-1.21h-51.24l-1.04-5.02a3.3 3.3 0 0 0-1.9-2.36l-7.23-3.13c-.83-.37-1.8.02-2.16.85-.36.83.02 1.8.85 2.17l7.22 3.13 7.96 38.66a3.3 3.3 0 0 0 3.22 2.62h39.42a1.65 1.65 0 0 0 0-3.29H946.4l-.97-4.7h40.68a3.3 3.3 0 0 0 3.22-2.63l4.6-22.34c.2-.98-.04-1.98-.67-2.75zm-7.15 24.43h-41.36l-4.6-22.35h50.56z" transform="translate(-927 -1185)"/></svg>