<svg xmlns="http://www.w3.org/2000/svg" width="62" height="59" viewBox="0 0 62 59"><defs><linearGradient id="a" x1="1390" x2="1328" y1="1571.11" y2="1520.91" gradientUnits="userSpaceOnUse"><stop offset="0" stop-color="#ff8400"/><stop offset="1" stop-color="#fb3d3c"/></linearGradient></defs><path d="M61.96 21.93c0-.1-.02-.24-.06-.32-.1-.34-.31-.66-.63-.88l-8.87-6.18V7.93c0-.88-.71-1.59-1.59-1.59H40.6L31.91.29a1.6 1.6 0 0 0-1.81 0l-8.74 6.05H11.2c-.88 0-1.59.71-1.59 1.59v6.54L.69 20.65c-.44.3-.68.78-.68 1.28l-.01.03.05 34.46c0 .42.17.82.47 1.12.29.3.7.47 1.12.47l58.78-.09c.87 0 1.58-.71 1.58-1.59zm-9.56-3.5l5.07 3.52-5.07 3.54zM31 3.53l4.04 2.81h-8.09zM12.78 9.52h36.44V27.7l-12.23 8.51L32 32.34l-.02-.02a1.6 1.6 0 0 0-1.93.02l-5.02 3.9-12.25-8.47zm-3.17 8.82v7.23l-5.23-3.62zm-6.43 6.65L22.4 38.28 3.22 53.18zm3.1 29.83l24.75-19.21 24.65 19.14zm33.34-16.57l19.16-13.34.04 28.26zm2.13-22.37h-21.5c-.87 0-1.58.71-1.58 1.59 0 .88.71 1.59 1.58 1.59h21.5a1.59 1.59 0 1 0 0-3.18zm0 8.27h-21.5a1.59 1.59 0 0 0 0 3.17h21.5a1.59 1.59 0 1 0 0-3.17z"/><path fill="url(#a)" d="M1389.96 1538.93c0-.1-.02-.24-.06-.32-.1-.34-.31-.66-.63-.88l-8.87-6.18v-6.62c0-.88-.71-1.59-1.59-1.59h-10.21l-8.69-6.05a1.6 1.6 0 0 0-1.81 0l-8.74 6.05h-10.16c-.88 0-1.59.71-1.59 1.59v6.54l-8.92 6.18c-.44.3-.68.78-.68 1.28l-.01.03.05 34.46c0 .42.17.82.47 1.12.29.3.7.47 1.12.47l58.78-.09c.87 0 1.58-.71 1.58-1.59zm-9.56-3.5l5.07 3.52-5.07 3.54zm-21.4-14.9l4.04 2.81h-8.09zm-18.22 5.99h36.44v18.18l-12.23 8.51-4.99-3.87-.02-.02a1.6 1.6 0 0 0-1.93.02l-5.02 3.9-12.25-8.47zm-3.17 8.82v7.23l-5.23-3.62zm-6.43 6.65l19.22 13.29-19.18 14.9zm3.1 29.83l24.75-19.21 24.65 19.14zm33.34-16.57l19.16-13.34.04 28.26zm2.13-22.37h-21.5c-.87 0-1.58.71-1.58 1.59 0 .88.71 1.59 1.58 1.59h21.5a1.59 1.59 0 1 0 0-3.18zm0 8.27h-21.5a1.59 1.59 0 0 0 0 3.17h21.5a1.59 1.59 0 1 0 0-3.17z" transform="translate(-1328 -1517)"/></svg>