<svg xmlns="http://www.w3.org/2000/svg" width="60" height="62" viewBox="0 0 60 62"><defs><linearGradient id="a" x1="989.99" x2="930.01" y1="1570.29" y2="1521.72" gradientUnits="userSpaceOnUse"><stop offset="0" stop-color="#ff8400"/><stop offset="1" stop-color="#fb3d3c"/></linearGradient></defs><path d="M47.07 9.5A1.5 1.5 0 0 0 48.55 8V3.28c0-1.8-1.45-3.27-3.25-3.27H13.82c-.4 0-.77.16-1.05.44L.44 12.84a1.5 1.5 0 0 0-.43 1.06v44.83C0 60.53 1.47 62 3.26 62H45.3c1.8 0 3.25-1.47 3.25-3.27V35.88a1.5 1.5 0 0 0-2.97 0v22.85c0 .15-.13.28-.28.28H3.26a.28.28 0 0 1-.28-.28V15.4h9.08c1.79 0 3.25-1.47 3.25-3.27V3h30c.14 0 .27.13.27.28V8c0 .83.66 1.5 1.49 1.5zm-34.74 2.63c0 .15-.12.28-.27.28H5.09l7.24-7.29zm46.2.04l-1.76-1.76a5.01 5.01 0 0 0-7.12 0l-13.9 13.97h-24.1a1.5 1.5 0 0 0 0 2.99h21.12l-8.95 9.01H11.64a1.5 1.5 0 1 0 0 2.99h9.2l-.02.02c-.18.19-.32.41-.38.66l-2.3 8.33h-6.5a1.5 1.5 0 1 0 0 2.99h7.63l.37-.05 9.4-2.62c.24-.07.47-.2.65-.39l28.83-28.99a5.08 5.08 0 0 0 0-7.15zM21.4 47.72l1.21-4.4 3.16 3.18zm7.23-2.58l-4.67-4.69 23.8-23.93 4.67 4.69zm27.78-27.93l-1.88 1.88-4.66-4.68 1.87-1.89c.8-.81 2.11-.81 2.92 0l1.75 1.76c.8.81.8 2.12 0 2.93z"/><path fill="url(#a)" d="M977.07 1524.5a1.5 1.5 0 0 0 1.48-1.5v-4.72c0-1.8-1.45-3.27-3.25-3.27h-31.48c-.4 0-.77.16-1.05.44l-12.33 12.39a1.5 1.5 0 0 0-.43 1.06v44.83c0 1.8 1.46 3.27 3.25 3.27h42.04c1.8 0 3.25-1.47 3.25-3.27v-22.85a1.5 1.5 0 0 0-2.97 0v22.85c0 .15-.13.28-.28.28h-42.04a.28.28 0 0 1-.28-.28v-43.33h9.08c1.79 0 3.25-1.47 3.25-3.27V1518h30c.14 0 .27.13.27.28v4.72c0 .83.66 1.5 1.49 1.5zm-34.74 2.63c0 .15-.12.28-.27.28h-6.97l7.24-7.29zm46.2.04l-1.76-1.76a5.01 5.01 0 0 0-7.12 0l-13.9 13.97h-24.1a1.5 1.5 0 0 0 0 2.99h21.12l-8.95 9.01h-12.18a1.5 1.5 0 1 0 0 2.99h9.2l-.02.02c-.18.19-.32.41-.38.66l-2.3 8.33h-6.5a1.5 1.5 0 1 0 0 2.99h7.63l.37-.05 9.4-2.62c.24-.07.47-.2.65-.39l28.83-28.99a5.08 5.08 0 0 0 0-7.15zm-37.12 35.55l1.21-4.4 3.16 3.18zm7.23-2.58l-4.67-4.69 23.8-23.93 4.67 4.69zm27.78-27.93l-1.88 1.88-4.66-4.68 1.87-1.89c.8-.81 2.11-.81 2.92 0l1.75 1.76c.8.81.8 2.12 0 2.93z" transform="translate(-930 -1515)"/></svg>