<svg xmlns="http://www.w3.org/2000/svg" width="62" height="62" viewBox="0 0 62 62"><defs><linearGradient id="a" x1="589.95" x2="528.15" y1="1242.02" y2="1191.98" gradientUnits="userSpaceOnUse"><stop offset="0" stop-color="#ff8400"/><stop offset="1" stop-color="#fb3d3c"/></linearGradient></defs><path d="M17.16 3.87C15.28 1.38 12.76 0 10.04 0 7.32 0 4.79 1.38 2.92 3.87A14.79 14.79 0 0 0 .16 12.7c0 3.32.98 6.46 2.76 8.84a10.05 10.05 0 0 0 3.65 3.08L4.48 56.06a5.58 5.58 0 1 0 11.11 0L13.5 24.62a9.95 9.95 0 0 0 3.66-3.08 14.8 14.8 0 0 0 2.76-8.84c0-3.31-.98-6.45-2.76-8.83zm-5.13 54.42a2.7 2.7 0 0 1-3.98 0 2.69 2.69 0 0 1-.73-2.04l2.05-30.87a7.4 7.4 0 0 0 1.33 0l2.06 30.87c.05.76-.21 1.49-.73 2.04zm-2-35.72c-.5 0-1-.08-1.48-.23l-.12-.04C5.33 21.28 3 17.37 3 12.7c0-5.43 3.16-9.86 7.04-9.86s7.04 4.43 7.04 9.86c0 5.44-3.16 9.87-7.04 9.87zm51.91 14.47V1.6v.01c.03-.32-.03-.65-.2-.94a1.43 1.43 0 0 0-1.97-.46 19.43 19.43 0 0 0-9.26 16.62v18.62c0 1.64 1.3 2.97 2.93 3.02v19.25a4.26 4.26 0 0 0 8.5 0V37.05v-.01zm-8.41-1.41a.18.18 0 0 1-.18-.18V16.84v-.01c0-4.92 2.11-9.46 5.75-12.61v31.41zm4.16 23.51c-.78 0-1.41-.64-1.41-1.41V38.47h2.82v19.26c0 .77-.63 1.41-1.4 1.41zM40.35 0c-.79 0-1.42.64-1.42 1.42v16.16H35.3V1.42a1.42 1.42 0 0 0-2.84 0v16.16h-3.62V1.42a1.42 1.42 0 0 0-2.85 0v20.59c0 2.31 1.89 4.2 4.2 4.2h.26l-2 29.99a5.48 5.48 0 0 0 1.46 4.08 5.47 5.47 0 0 0 7.94 0 5.48 5.48 0 0 0 1.46-4.08l-2-29.99h.26c2.31 0 4.2-1.89 4.2-4.2V1.42c0-.78-.64-1.42-1.42-1.42zm-4.57 58.33a2.58 2.58 0 0 1-3.8 0 2.57 2.57 0 0 1-.69-1.94l2.01-30.18h1.16l2.01 30.18c.05.72-.2 1.41-.7 1.94zm3.15-36.32c0 .75-.61 1.36-1.36 1.36H30.2c-.75 0-1.36-.61-1.36-1.36v-1.59h10.09z"/><path fill="url(#a)" d="M545.16 1189.87c-1.88-2.49-4.4-3.87-7.12-3.87-2.72 0-5.25 1.38-7.12 3.87a14.79 14.79 0 0 0-2.76 8.83c0 3.32.98 6.46 2.76 8.84a10.05 10.05 0 0 0 3.65 3.08l-2.09 31.44a5.58 5.58 0 1 0 11.11 0l-2.09-31.44a9.95 9.95 0 0 0 3.66-3.08 14.8 14.8 0 0 0 2.76-8.84c0-3.31-.98-6.45-2.76-8.83zm-5.13 54.42a2.7 2.7 0 0 1-3.98 0 2.69 2.69 0 0 1-.73-2.04l2.05-30.87a7.4 7.4 0 0 0 1.33 0l2.06 30.87c.05.76-.21 1.49-.73 2.04zm-2-35.72c-.5 0-1-.08-1.48-.23l-.12-.04c-3.1-1.02-5.43-4.93-5.43-9.6 0-5.43 3.16-9.86 7.04-9.86s7.04 4.43 7.04 9.86c0 5.44-3.16 9.87-7.04 9.87zm51.91 14.47v-35.44.01c.03-.32-.03-.65-.2-.94a1.43 1.43 0 0 0-1.97-.46 19.43 19.43 0 0 0-9.26 16.62v18.62c0 1.64 1.3 2.97 2.93 3.02v19.25a4.26 4.26 0 0 0 8.5 0v-20.67-.01zm-8.41-1.41a.18.18 0 0 1-.18-.18v-18.61-.01c0-4.92 2.11-9.46 5.75-12.61v31.41zm4.16 23.51c-.78 0-1.41-.64-1.41-1.41v-19.26h2.82v19.26c0 .77-.63 1.41-1.4 1.41zM568.35 1186c-.79 0-1.42.64-1.42 1.42v16.16h-3.63v-16.16a1.42 1.42 0 0 0-2.84 0v16.16h-3.62v-16.16a1.42 1.42 0 0 0-2.85 0v20.59c0 2.31 1.89 4.2 4.2 4.2h.26l-2 29.99a5.48 5.48 0 0 0 1.46 4.08 5.47 5.47 0 0 0 7.94 0 5.48 5.48 0 0 0 1.46-4.08l-2-29.99h.26c2.31 0 4.2-1.89 4.2-4.2v-20.59c0-.78-.64-1.42-1.42-1.42zm-4.57 58.33a2.58 2.58 0 0 1-3.8 0 2.57 2.57 0 0 1-.69-1.94l2.01-30.18h1.16l2.01 30.18c.05.72-.2 1.41-.7 1.94zm3.15-36.32c0 .75-.61 1.36-1.36 1.36h-7.37c-.75 0-1.36-.61-1.36-1.36v-1.59h10.09z" transform="translate(-528 -1186)"/></svg>