<svg xmlns="http://www.w3.org/2000/svg" width="63" height="63" viewBox="0 0 63 63"><defs><linearGradient id="a" x1="1390" x2="1327.99" y1="1242.12" y2="1191.9" gradientUnits="userSpaceOnUse"><stop offset="0" stop-color="#ff8400"/><stop offset="1" stop-color="#fb3d3c"/></linearGradient></defs><path d="M40.82 44.66l-1.99-1.17c.16-1.34.16-2.7 0-4.03l1.99-1.17a2.63 2.63 0 0 0 1.06-3.23l-1.43-3.44a2.6 2.6 0 0 0-3.02-1.53l-2.24.58a17.08 17.08 0 0 0-2.85-2.85l.58-2.24a2.62 2.62 0 0 0-1.53-3.02l-3.45-1.43a2.61 2.61 0 0 0-3.22 1.06l-1.17 1.99c-1.34-.16-2.7-.16-4.04 0a94.7 94.7 0 0 0-1.17-1.99 2.61 2.61 0 0 0-3.22-1.06l-3.44 1.43a2.6 2.6 0 0 0-1.53 3.02c.18.74.38 1.49.58 2.24a16.7 16.7 0 0 0-2.85 2.85l-2.24-.58a2.62 2.62 0 0 0-3.03 1.53l-1.42 3.44a2.62 2.62 0 0 0 1.06 3.23l1.99 1.17a16.98 16.98 0 0 0 0 4.03l-1.99 1.17a2.6 2.6 0 0 0-1.06 3.22l1.42 3.45a2.62 2.62 0 0 0 3.03 1.52c.73-.18 1.49-.37 2.23-.57.84 1.05 1.8 2.01 2.86 2.85l-.58 2.23a2.62 2.62 0 0 0 1.53 3.03l3.44 1.43a2.64 2.64 0 0 0 3.22-1.06l1.18-1.99c1.34.15 2.69.16 4.03 0l1.17 1.99a2.63 2.63 0 0 0 3.22 1.06l3.45-1.43a2.63 2.63 0 0 0 1.53-3.03l-.58-2.23c1.06-.84 2.01-1.8 2.85-2.85l2.24.57a2.6 2.6 0 0 0 3.02-1.52l1.43-3.45a2.61 2.61 0 0 0-1.06-3.22zm-2.87 5.46c-.71-.17-1.43-.36-2.15-.55a2.56 2.56 0 0 0-2.72.91c-.74.94-1.6 1.8-2.54 2.54a2.56 2.56 0 0 0-.91 2.72l.56 2.14-3.17 1.31c-.38-.62-.75-1.26-1.12-1.9A2.59 2.59 0 0 0 23.33 56c-1.19.15-2.4.15-3.59 0a2.58 2.58 0 0 0-2.57 1.28c-.38.65-.75 1.29-1.13 1.91l-3.16-1.31.56-2.14a2.62 2.62 0 0 0-.91-2.73 14.2 14.2 0 0 1-2.54-2.54 2.59 2.59 0 0 0-2.73-.9l-2.14.55-1.31-3.16 1.91-1.12A2.58 2.58 0 0 0 7 43.27a15.4 15.4 0 0 1 0-3.59 2.58 2.58 0 0 0-1.28-2.57l-1.91-1.12 1.31-3.17 2.14.56a2.59 2.59 0 0 0 2.73-.91c.74-.95 1.59-1.8 2.54-2.54a2.6 2.6 0 0 0 .91-2.72l-.56-2.15 3.16-1.31 1.13 1.91a2.59 2.59 0 0 0 2.57 1.29c1.19-.15 2.39-.15 3.59 0a2.59 2.59 0 0 0 2.57-1.29l1.12-1.91 3.16 1.31c-.17.71-.36 1.43-.55 2.15a2.56 2.56 0 0 0 .91 2.72c.94.74 1.8 1.6 2.54 2.54a2.58 2.58 0 0 0 2.72.91l2.15-.56 1.31 3.17-1.91 1.12a2.59 2.59 0 0 0-1.29 2.57c.15 1.19.15 2.39 0 3.59a2.6 2.6 0 0 0 1.29 2.57l1.91 1.12zm-7.68-12.27a9.47 9.47 0 0 0-17.48 7.24 9.42 9.42 0 0 0 8.74 5.85 9.46 9.46 0 0 0 8.74-13.09zm-6.18 9.8a6.68 6.68 0 1 1-5.12-12.34 6.68 6.68 0 0 1 5.12 12.34zm37.04-35.42l-1.46-.2c-.25-.83-.59-1.64-1-2.4l.89-1.19c.64-.87.55-2.1-.21-2.86l-1.92-1.91a2.2 2.2 0 0 0-2.86-.22l-1.18.89c-.77-.41-1.57-.74-2.4-.99l-.21-1.47A2.21 2.21 0 0 0 48.6.01h-2.7c-1.08 0-2.02.8-2.18 1.87l-.21 1.47c-.83.25-1.63.58-2.4.99l-1.18-.89a2.2 2.2 0 0 0-2.86.22l-1.92 1.91a2.22 2.22 0 0 0-.21 2.86l.89 1.19c-.41.76-.75 1.57-1 2.4l-1.46.2a2.22 2.22 0 0 0-1.88 2.18v2.71c0 1.08.81 2.01 1.88 2.17l1.46.21c.25.83.59 1.63 1 2.4-.31.39-.6.79-.89 1.18-.64.87-.55 2.1.21 2.86l1.92 1.92c.76.76 1.99.85 2.86.21l1.18-.89c.77.41 1.57.75 2.4 1l.21 1.46a2.21 2.21 0 0 0 2.18 1.87h2.7c1.08 0 2.02-.8 2.18-1.87l.21-1.46c.83-.25 1.63-.59 2.4-1l1.18.89c.87.64 2.1.55 2.86-.21l1.92-1.92c.76-.76.85-1.99.21-2.86a91.2 91.2 0 0 0-.89-1.18c.41-.77.75-1.57 1-2.4l1.46-.21A2.2 2.2 0 0 0 63 17.12v-2.71c0-1.08-.8-2.02-1.87-2.18zm-2.09 4.69c-.88.12-1.6.74-1.83 1.59-.23.82-.55 1.61-.97 2.34a2.2 2.2 0 0 0 .17 2.43l.81 1.07-1.39 1.38-1.06-.81a2.2 2.2 0 0 0-2.43-.17c-.73.42-1.52.74-2.34.97-.85.23-1.48.95-1.59 1.83l-.18 1.33h-1.96l-.18-1.33a2.17 2.17 0 0 0-1.59-1.83c-.82-.23-1.61-.55-2.34-.97a2.2 2.2 0 0 0-2.43.17l-1.07.81-1.38-1.38.81-1.07a2.2 2.2 0 0 0 .17-2.43c-.42-.73-.74-1.52-.97-2.34a2.19 2.19 0 0 0-1.83-1.59l-1.33-.18v-1.95l1.33-.19c.88-.11 1.6-.74 1.83-1.59.23-.82.55-1.6.97-2.34a2.2 2.2 0 0 0-.17-2.43l-.81-1.06 1.38-1.38 1.07.8c.7.55 1.66.61 2.43.18a9.8 9.8 0 0 1 2.34-.97 2.2 2.2 0 0 0 1.59-1.84l.18-1.32h1.96l.18 1.32c.11.88.74 1.6 1.59 1.84a9.8 9.8 0 0 1 2.34.97c.77.43 1.72.37 2.43-.17l1.06-.81 1.39 1.38-.81 1.06a2.2 2.2 0 0 0-.17 2.43c.42.74.74 1.52.97 2.34.23.85.95 1.48 1.83 1.59l1.33.19v1.95l-1.33.18zm-11.79-6.78a5.62 5.62 0 1 0 .01 11.25 5.62 5.62 0 0 0-.01-11.25zm0 8.74a3.12 3.12 0 1 1 0-6.25 3.12 3.12 0 0 1 0 6.25z"/><path fill="url(#a)" d="M1367.82 1230.66l-1.99-1.17c.16-1.34.16-2.7 0-4.03l1.99-1.17a2.63 2.63 0 0 0 1.06-3.23l-1.43-3.44a2.6 2.6 0 0 0-3.02-1.53l-2.24.58a17.08 17.08 0 0 0-2.85-2.85l.58-2.24a2.62 2.62 0 0 0-1.53-3.02l-3.45-1.43a2.61 2.61 0 0 0-3.22 1.06l-1.17 1.99c-1.34-.16-2.7-.16-4.04 0a94.7 94.7 0 0 0-1.17-1.99 2.61 2.61 0 0 0-3.22-1.06l-3.44 1.43a2.6 2.6 0 0 0-1.53 3.02c.18.74.38 1.49.58 2.24a16.7 16.7 0 0 0-2.85 2.85l-2.24-.58a2.62 2.62 0 0 0-3.03 1.53l-1.42 3.44a2.62 2.62 0 0 0 1.06 3.23l1.99 1.17a16.98 16.98 0 0 0 0 4.03l-1.99 1.17a2.6 2.6 0 0 0-1.06 3.22l1.42 3.45a2.62 2.62 0 0 0 3.03 1.52c.73-.18 1.49-.37 2.23-.57.84 1.05 1.8 2.01 2.86 2.85l-.58 2.23a2.62 2.62 0 0 0 1.53 3.03l3.44 1.43a2.64 2.64 0 0 0 3.22-1.06l1.18-1.99c1.34.15 2.69.16 4.03 0l1.17 1.99a2.63 2.63 0 0 0 3.22 1.06l3.45-1.43a2.63 2.63 0 0 0 1.53-3.03l-.58-2.23c1.06-.84 2.01-1.8 2.85-2.85l2.24.57a2.6 2.6 0 0 0 3.02-1.52l1.43-3.45a2.61 2.61 0 0 0-1.06-3.22zm-2.87 5.46c-.71-.17-1.43-.36-2.15-.55a2.56 2.56 0 0 0-2.72.91c-.74.94-1.6 1.8-2.54 2.54a2.56 2.56 0 0 0-.91 2.72l.56 2.14-3.17 1.31c-.38-.62-.75-1.26-1.12-1.9a2.59 2.59 0 0 0-2.57-1.29c-1.19.15-2.4.15-3.59 0a2.58 2.58 0 0 0-2.57 1.28c-.38.65-.75 1.29-1.13 1.91l-3.16-1.31.56-2.14a2.62 2.62 0 0 0-.91-2.73 14.2 14.2 0 0 1-2.54-2.54 2.59 2.59 0 0 0-2.73-.9l-2.14.55-1.31-3.16 1.91-1.12a2.58 2.58 0 0 0 1.28-2.57 15.4 15.4 0 0 1 0-3.59 2.58 2.58 0 0 0-1.28-2.57l-1.91-1.12 1.31-3.17 2.14.56a2.59 2.59 0 0 0 2.73-.91c.74-.95 1.59-1.8 2.54-2.54a2.6 2.6 0 0 0 .91-2.72l-.56-2.15 3.16-1.31 1.13 1.91a2.59 2.59 0 0 0 2.57 1.29c1.19-.15 2.39-.15 3.59 0a2.59 2.59 0 0 0 2.57-1.29l1.12-1.91 3.16 1.31c-.17.71-.36 1.43-.55 2.15a2.56 2.56 0 0 0 .91 2.72c.94.74 1.8 1.6 2.54 2.54a2.58 2.58 0 0 0 2.72.91l2.15-.56 1.31 3.17-1.91 1.12a2.59 2.59 0 0 0-1.29 2.57c.15 1.19.15 2.39 0 3.59a2.6 2.6 0 0 0 1.29 2.57l1.91 1.12zm-7.68-12.27a9.47 9.47 0 0 0-17.48 7.24 9.42 9.42 0 0 0 8.74 5.85 9.46 9.46 0 0 0 8.74-13.09zm-6.18 9.8a6.68 6.68 0 1 1-5.12-12.34 6.68 6.68 0 0 1 5.12 12.34zm37.04-35.42l-1.46-.2c-.25-.83-.59-1.64-1-2.4l.89-1.19c.64-.87.55-2.1-.21-2.86l-1.92-1.91a2.2 2.2 0 0 0-2.86-.22l-1.18.89c-.77-.41-1.57-.74-2.4-.99l-.21-1.47a2.21 2.21 0 0 0-2.18-1.87h-2.7c-1.08 0-2.02.8-2.18 1.87l-.21 1.47c-.83.25-1.63.58-2.4.99l-1.18-.89a2.2 2.2 0 0 0-2.86.22l-1.92 1.91a2.22 2.22 0 0 0-.21 2.86l.89 1.19c-.41.76-.75 1.57-1 2.4l-1.46.2a2.22 2.22 0 0 0-1.88 2.18v2.71c0 1.08.81 2.01 1.88 2.17l1.46.21c.25.83.59 1.63 1 2.4-.31.39-.6.79-.89 1.18-.64.87-.55 2.1.21 2.86l1.92 1.92c.76.76 1.99.85 2.86.21l1.18-.89c.77.41 1.57.75 2.4 1l.21 1.46a2.21 2.21 0 0 0 2.18 1.87h2.7c1.08 0 2.02-.8 2.18-1.87l.21-1.46c.83-.25 1.63-.59 2.4-1l1.18.89c.87.64 2.1.55 2.86-.21l1.92-1.92c.76-.76.85-1.99.21-2.86a91.2 91.2 0 0 0-.89-1.18c.41-.77.75-1.57 1-2.4l1.46-.21a2.2 2.2 0 0 0 1.87-2.17v-2.71c0-1.08-.8-2.02-1.87-2.18zm-2.09 4.69c-.88.12-1.6.74-1.83 1.59-.23.82-.55 1.61-.97 2.34a2.2 2.2 0 0 0 .17 2.43l.81 1.07-1.39 1.38-1.06-.81a2.2 2.2 0 0 0-2.43-.17c-.73.42-1.52.74-2.34.97-.85.23-1.48.95-1.59 1.83l-.18 1.33h-1.96l-.18-1.33a2.17 2.17 0 0 0-1.59-1.83c-.82-.23-1.61-.55-2.34-.97a2.2 2.2 0 0 0-2.43.17l-1.07.81-1.38-1.38.81-1.07a2.2 2.2 0 0 0 .17-2.43c-.42-.73-.74-1.52-.97-2.34a2.19 2.19 0 0 0-1.83-1.59l-1.33-.18v-1.95l1.33-.19c.88-.11 1.6-.74 1.83-1.59.23-.82.55-1.6.97-2.34a2.2 2.2 0 0 0-.17-2.43l-.81-1.06 1.38-1.38 1.07.8c.7.55 1.66.61 2.43.18a9.8 9.8 0 0 1 2.34-.97 2.2 2.2 0 0 0 1.59-1.84l.18-1.32h1.96l.18 1.32c.11.88.74 1.6 1.59 1.84a9.8 9.8 0 0 1 2.34.97c.77.43 1.72.37 2.43-.17l1.06-.81 1.39 1.38-.81 1.06a2.2 2.2 0 0 0-.17 2.43c.42.74.74 1.52.97 2.34.23.85.95 1.48 1.83 1.59l1.33.19v1.95l-1.33.18zm-11.79-6.78a5.62 5.62 0 1 0 .01 11.25 5.62 5.62 0 0 0-.01-11.25zm0 8.74a3.12 3.12 0 1 1 0-6.25 3.12 3.12 0 0 1 0 6.25z" transform="translate(-1327 -1186)"/></svg>