<svg xmlns="http://www.w3.org/2000/svg" width="48" height="62" viewBox="0 0 48 62"><defs><linearGradient id="a" x1="582.59" x2="535.41" y1="1565.12" y2="1526.92" gradientUnits="userSpaceOnUse"><stop offset="0" stop-color="#ff8400"/><stop offset="1" stop-color="#fb3d3c"/></linearGradient></defs><path d="M38.34 40.27c-.05 0-7.18.21-8.24-7.43a14.08 14.08 0 0 0 3.22-3.19 19.36 19.36 0 0 0 3.49-9.1c.14-.13.27-.3.35-.49a15.01 15.01 0 0 0 1.16-5.84C38.32 6.4 32.42.04 25.18.04c-1.9 0-3.74.44-5.48 1.3-.66.05-1.3.17-1.93.35-2.98.86-5.4 3.06-6.82 6.21a15.44 15.44 0 0 0-.77 10.13c.19.74.43 1.46.7 2.15.08.18.2.34.33.47.7 5.34 3.24 9.76 6.7 12.18-1.06 7.65-8.2 7.44-8.25 7.44a9.6 9.6 0 0 0-9.25 9.57V60.6c0 .78.63 1.4 1.4 1.4H46.2c.77 0 1.4-.62 1.4-1.4V49.84a9.6 9.6 0 0 0-9.26-9.57zm-19.8-35.9a6.5 6.5 0 0 1 1.6-.26c.2-.01.4-.06.59-.16a9.51 9.51 0 0 1 4.45-1.12c5.7 0 10.35 5.11 10.35 11.39l-.01.56a6.06 6.06 0 0 0-4.35-1.82h-9.5a2.62 2.62 0 0 1-2.41-1.63 1.72 1.72 0 0 0-3.24.21 12.92 12.92 0 0 1-3.17 5.65c-1.4-5.77 1.13-11.5 5.7-12.82zM17.33 28.5c-1.82-2.22-3-5.22-3.38-8.49A15.87 15.87 0 0 0 18 14.32c.13.13.28.24.43.36.94.7 2.05 1.07 3.22 1.07h9.51c1.35 0 2.5.8 3.03 1.96v.03c0 7.87-4.58 14.28-10.2 14.28-2.44 0-4.81-1.25-6.67-3.52zm3.2 5.7a10.16 10.16 0 0 0 6.94 0c.51 2.66 2 4.98 4.06 6.58L24.2 51.21a.22.22 0 0 1-.2.1.22.22 0 0 1-.2-.1l-7.32-10.43a10.93 10.93 0 0 0 4.06-6.58zM3.22 59.21v-9.37a6.8 6.8 0 0 1 6.78-6.78c.05 0 2.3-.06 4.07-.87l7.46 10.63a3.05 3.05 0 0 0 4.97 0l7.46-10.62c2.02.86 4.01.86 4.06.86a6.8 6.8 0 0 1 6.8 6.78v9.37z"/><path fill="url(#a)" d="M573.34 1555.27c-.05 0-7.18.21-8.24-7.43a14.08 14.08 0 0 0 3.22-3.19 19.36 19.36 0 0 0 3.49-9.1c.14-.13.27-.3.35-.49a15.01 15.01 0 0 0 1.16-5.84c0-7.82-5.9-14.18-13.14-14.18-1.9 0-3.74.44-5.48 1.3-.66.05-1.3.17-1.93.35-2.98.86-5.4 3.06-6.82 6.21a15.44 15.44 0 0 0-.77 10.13c.19.74.43 1.46.7 2.15.08.18.2.34.33.47.7 5.34 3.24 9.76 6.7 12.18-1.06 7.65-8.2 7.44-8.25 7.44a9.6 9.6 0 0 0-9.25 9.57v10.76c0 .78.63 1.4 1.4 1.4h44.39c.77 0 1.4-.62 1.4-1.4v-10.76a9.6 9.6 0 0 0-9.26-9.57zm-19.8-35.9a6.5 6.5 0 0 1 1.6-.26c.2-.01.4-.06.59-.16a9.51 9.51 0 0 1 4.45-1.12c5.7 0 10.35 5.11 10.35 11.39l-.01.56a6.06 6.06 0 0 0-4.35-1.82h-9.5a2.62 2.62 0 0 1-2.41-1.63 1.72 1.72 0 0 0-3.24.21 12.92 12.92 0 0 1-3.17 5.65c-1.4-5.77 1.13-11.5 5.7-12.82zm-1.21 24.13c-1.82-2.22-3-5.22-3.38-8.49a15.87 15.87 0 0 0 4.06-5.69c.13.13.28.24.43.36.94.7 2.05 1.07 3.22 1.07h9.51c1.35 0 2.5.8 3.03 1.96v.03c0 7.87-4.58 14.28-10.2 14.28-2.44 0-4.81-1.25-6.67-3.52zm3.2 5.7a10.16 10.16 0 0 0 6.94 0c.51 2.66 2 4.98 4.06 6.58l-7.33 10.43a.22.22 0 0 1-.2.1.22.22 0 0 1-.2-.1l-7.32-10.43a10.93 10.93 0 0 0 4.06-6.58zm-17.32 25.01v-9.37a6.8 6.8 0 0 1 6.78-6.78c.05 0 2.3-.06 4.07-.87l7.46 10.63a3.05 3.05 0 0 0 4.97 0l7.46-10.62c2.02.86 4.01.86 4.06.86a6.8 6.8 0 0 1 6.8 6.78v9.37z" transform="translate(-535 -1515)"/></svg>